<svg width="465" height="88" viewBox="0 0 465 88" fill="none" xmlns="http://www.w3.org/2000/svg">
<g filter="url(#filter0_d_8_33)">
<path d="M338 75H236C233.239 75 231 72.7614 231 70V30.8258C231 30.279 231.09 29.7359 231.266 29.2181L238.583 7.66939C239.316 5.50951 241.419 4.11981 243.693 4.29123L273 6.5H302.5L331.309 4.307C333.661 4.12796 335.818 5.61712 336.485 7.87987L342.796 29.3083C342.931 29.7671 343 30.2428 343 30.721V70C343 72.7614 340.761 75 338 75Z" fill="#C6BDFF"/>
<path d="M338 75H236C233.239 75 231 72.7614 231 70V30.8258C231 30.279 231.09 29.7359 231.266 29.2181L238.583 7.66939C239.316 5.50951 241.419 4.11981 243.693 4.29123L273 6.5H302.5L331.309 4.307C333.661 4.12796 335.818 5.61712 336.485 7.87987L342.796 29.3083C342.931 29.7671 343 30.2428 343 30.721V70C343 72.7614 340.761 75 338 75Z" stroke="#2D107A" stroke-width="2"/>
</g>
<path d="M337 23V41.0443C337 43.5944 335.019 45.7057 332.474 45.8678L299 48H275.5L241.53 45.8644C238.983 45.7043 237 43.5922 237 41.0405V23" stroke="black" stroke-width="1.93333" stroke-linecap="round"/>
<path d="M337 23V41.0443C337 43.5944 335.019 45.7057 332.474 45.8678L299 48H275.5L241.53 45.8644C238.983 45.7043 237 43.5922 237 41.0405V23" stroke="#2D107A" stroke-width="1.93333" stroke-linecap="round"/>
<line x1="0.993488" y1="-0.993488" x2="19.3367" y2="-0.993488" transform="matrix(-0.154617 0.987975 -0.998605 -0.0527925 237.155 48.97)" stroke="black" stroke-width="1.98698" stroke-linecap="round"/>
<line x1="0.993488" y1="-0.993488" x2="19.3367" y2="-0.993488" transform="matrix(-0.154617 0.987975 -0.998605 -0.0527925 237.155 48.97)" stroke="#2D107A" stroke-width="1.98698" stroke-linecap="round"/>
<line x1="0.993488" y1="-0.993488" x2="19.3367" y2="-0.993488" transform="matrix(0.107422 0.994214 -0.97802 0.208511 333.48 49.9366)" stroke="black" stroke-width="1.98698" stroke-linecap="round"/>
<line x1="0.993488" y1="-0.993488" x2="19.3367" y2="-0.993488" transform="matrix(0.107422 0.994214 -0.97802 0.208511 333.48 49.9366)" stroke="#2D107A" stroke-width="1.98698" stroke-linecap="round"/>
<path d="M253.705 32.1818C253.705 33.4508 253.464 34.5303 252.983 35.4205C252.506 36.3106 251.854 36.9905 251.028 37.4602C250.206 37.9261 249.282 38.1591 248.256 38.1591C247.222 38.1591 246.294 37.9242 245.472 37.4545C244.65 36.9848 244 36.3049 243.523 35.4148C243.045 34.5246 242.807 33.447 242.807 32.1818C242.807 30.9129 243.045 29.8333 243.523 28.9432C244 28.053 244.65 27.375 245.472 26.9091C246.294 26.4394 247.222 26.2045 248.256 26.2045C249.282 26.2045 250.206 26.4394 251.028 26.9091C251.854 27.375 252.506 28.053 252.983 28.9432C253.464 29.8333 253.705 30.9129 253.705 32.1818ZM251.21 32.1818C251.21 31.3598 251.087 30.6667 250.841 30.1023C250.598 29.5379 250.256 29.1098 249.812 28.8182C249.369 28.5265 248.85 28.3807 248.256 28.3807C247.661 28.3807 247.142 28.5265 246.699 28.8182C246.256 29.1098 245.911 29.5379 245.665 30.1023C245.422 30.6667 245.301 31.3598 245.301 32.1818C245.301 33.0038 245.422 33.697 245.665 34.2614C245.911 34.8258 246.256 35.2538 246.699 35.5455C247.142 35.8371 247.661 35.983 248.256 35.983C248.85 35.983 249.369 35.8371 249.812 35.5455C250.256 35.2538 250.598 34.8258 250.841 34.2614C251.087 33.697 251.21 33.0038 251.21 32.1818ZM255.482 41.2727V29.2727H257.868V30.7386H257.976C258.082 30.5038 258.235 30.2652 258.436 30.0227C258.641 29.7765 258.906 29.572 259.232 29.4091C259.561 29.2424 259.97 29.1591 260.459 29.1591C261.095 29.1591 261.682 29.3258 262.22 29.6591C262.758 29.9886 263.188 30.4867 263.51 31.1534C263.832 31.8163 263.993 32.6477 263.993 33.6477C263.993 34.6212 263.836 35.4432 263.521 36.1136C263.211 36.7803 262.786 37.286 262.249 37.6307C261.714 37.9716 261.116 38.142 260.453 38.142C259.983 38.142 259.584 38.0644 259.254 37.9091C258.929 37.7538 258.661 37.5587 258.453 37.3239C258.245 37.0852 258.086 36.8447 257.976 36.6023H257.902V41.2727H255.482ZM257.851 33.6364C257.851 34.1553 257.923 34.608 258.067 34.9943C258.211 35.3807 258.419 35.6818 258.692 35.8977C258.964 36.1098 259.296 36.2159 259.686 36.2159C260.08 36.2159 260.413 36.108 260.686 35.892C260.959 35.6723 261.165 35.3693 261.305 34.983C261.449 34.5928 261.521 34.1439 261.521 33.6364C261.521 33.1326 261.451 32.6894 261.311 32.3068C261.171 31.9242 260.964 31.625 260.692 31.4091C260.419 31.1932 260.084 31.0852 259.686 31.0852C259.292 31.0852 258.959 31.1894 258.686 31.3977C258.417 31.6061 258.211 31.9015 258.067 32.2841C257.923 32.6667 257.851 33.1174 257.851 33.6364ZM270.249 29.2727V31.0909H264.993V29.2727H270.249ZM266.186 27.1818H268.607V35.3182C268.607 35.5417 268.641 35.7159 268.709 35.8409C268.777 35.9621 268.872 36.0473 268.993 36.0966C269.118 36.1458 269.262 36.1705 269.425 36.1705C269.538 36.1705 269.652 36.161 269.766 36.142C269.879 36.1193 269.966 36.1023 270.027 36.0909L270.408 37.892C270.286 37.9299 270.116 37.9735 269.896 38.0227C269.677 38.0758 269.41 38.108 269.095 38.1193C268.512 38.142 268 38.0644 267.561 37.8864C267.125 37.7083 266.786 37.4318 266.544 37.0568C266.302 36.6818 266.182 36.2083 266.186 35.6364V27.1818ZM271.825 38V29.2727H274.246V38H271.825ZM273.041 28.1477C272.681 28.1477 272.373 28.0284 272.115 27.7898C271.861 27.5473 271.734 27.2576 271.734 26.9205C271.734 26.5871 271.861 26.3011 272.115 26.0625C272.373 25.8201 272.681 25.6989 273.041 25.6989C273.401 25.6989 273.708 25.8201 273.962 26.0625C274.219 26.3011 274.348 26.5871 274.348 26.9205C274.348 27.2576 274.219 27.5473 273.962 27.7898C273.708 28.0284 273.401 28.1477 273.041 28.1477ZM280.128 38.1705C279.245 38.1705 278.482 37.983 277.838 37.608C277.198 37.2292 276.704 36.7027 276.355 36.0284C276.007 35.3504 275.832 34.5644 275.832 33.6705C275.832 32.7689 276.007 31.9811 276.355 31.3068C276.704 30.6288 277.198 30.1023 277.838 29.7273C278.482 29.3485 279.245 29.1591 280.128 29.1591C281.01 29.1591 281.772 29.3485 282.412 29.7273C283.056 30.1023 283.552 30.6288 283.901 31.3068C284.249 31.9811 284.423 32.7689 284.423 33.6705C284.423 34.5644 284.249 35.3504 283.901 36.0284C283.552 36.7027 283.056 37.2292 282.412 37.608C281.772 37.983 281.01 38.1705 280.128 38.1705ZM280.139 36.2955C280.541 36.2955 280.876 36.1818 281.145 35.9545C281.414 35.7235 281.616 35.4091 281.753 35.0114C281.893 34.6136 281.963 34.161 281.963 33.6534C281.963 33.1458 281.893 32.6932 281.753 32.2955C281.616 31.8977 281.414 31.5833 281.145 31.3523C280.876 31.1212 280.541 31.0057 280.139 31.0057C279.734 31.0057 279.393 31.1212 279.116 31.3523C278.844 31.5833 278.637 31.8977 278.497 32.2955C278.361 32.6932 278.293 33.1458 278.293 33.6534C278.293 34.161 278.361 34.6136 278.497 35.0114C278.637 35.4091 278.844 35.7235 279.116 35.9545C279.393 36.1818 279.734 36.2955 280.139 36.2955ZM288.418 32.9545V38H285.997V29.2727H288.304V30.8125H288.406C288.599 30.3049 288.923 29.9034 289.378 29.608C289.832 29.3087 290.384 29.1591 291.031 29.1591C291.637 29.1591 292.166 29.2917 292.616 29.5568C293.067 29.822 293.418 30.2008 293.668 30.6932C293.918 31.1818 294.043 31.7652 294.043 32.4432V38H291.622V32.875C291.626 32.3409 291.49 31.9242 291.213 31.625C290.937 31.322 290.556 31.1705 290.071 31.1705C289.745 31.1705 289.457 31.2405 289.207 31.3807C288.961 31.5208 288.768 31.7254 288.628 31.9943C288.491 32.2595 288.421 32.5795 288.418 32.9545Z" fill="black"/>
<g filter="url(#filter1_d_8_33)">
<path d="M338 75H236C233.239 75 231 72.7614 231 70V28.8926C231 28.3665 231.083 27.8438 231.246 27.3437L238.609 4.74412C239.325 2.54773 241.452 1.12747 243.755 1.30837L273 3.60563H302.5L331.251 1.32457C333.629 1.1359 335.809 2.6535 336.458 4.94915L342.812 27.4318C342.937 27.8742 343 28.3318 343 28.7915V70C343 72.7614 340.761 75 338 75Z" fill="#C6BDFF"/>
<path d="M338 75H236C233.239 75 231 72.7614 231 70V28.8926C231 28.3665 231.083 27.8438 231.246 27.3437L238.609 4.74412C239.325 2.54773 241.452 1.12747 243.755 1.30837L273 3.60563H302.5L331.251 1.32457C333.629 1.1359 335.809 2.6535 336.458 4.94915L342.812 27.4318C342.937 27.8742 343 28.3318 343 28.7915V70C343 72.7614 340.761 75 338 75Z" stroke="#2D107A" stroke-width="2"/>
</g>
<path d="M337 23V41.0443C337 43.5944 335.019 45.7057 332.474 45.8678L299 48H275.5L241.53 45.8644C238.983 45.7043 237 43.5922 237 41.0405V23" stroke="black" stroke-width="1.93333" stroke-linecap="round"/>
<path d="M337 23V41.0443C337 43.5944 335.019 45.7057 332.474 45.8678L299 48H275.5L241.53 45.8644C238.983 45.7043 237 43.5922 237 41.0405V23" stroke="#2D107A" stroke-width="1.93333" stroke-linecap="round"/>
<line x1="0.993488" y1="-0.993488" x2="19.3367" y2="-0.993488" transform="matrix(-0.154617 0.987975 -0.998605 -0.0527925 237.155 48.97)" stroke="black" stroke-width="1.98698" stroke-linecap="round"/>
<line x1="0.993488" y1="-0.993488" x2="19.3367" y2="-0.993488" transform="matrix(-0.154617 0.987975 -0.998605 -0.0527925 237.155 48.97)" stroke="#2D107A" stroke-width="1.98698" stroke-linecap="round"/>
<line x1="0.993488" y1="-0.993488" x2="19.3367" y2="-0.993488" transform="matrix(0.107422 0.994214 -0.97802 0.208511 333.48 49.9366)" stroke="black" stroke-width="1.98698" stroke-linecap="round"/>
<line x1="0.993488" y1="-0.993488" x2="19.3367" y2="-0.993488" transform="matrix(0.107422 0.994214 -0.97802 0.208511 333.48 49.9366)" stroke="#2D107A" stroke-width="1.98698" stroke-linecap="round"/>
<path d="M253.705 32.1818C253.705 33.4508 253.464 34.5303 252.983 35.4205C252.506 36.3106 251.854 36.9905 251.028 37.4602C250.206 37.9261 249.282 38.1591 248.256 38.1591C247.222 38.1591 246.294 37.9242 245.472 37.4545C244.65 36.9848 244 36.3049 243.523 35.4148C243.045 34.5246 242.807 33.447 242.807 32.1818C242.807 30.9129 243.045 29.8333 243.523 28.9432C244 28.053 244.65 27.375 245.472 26.9091C246.294 26.4394 247.222 26.2045 248.256 26.2045C249.282 26.2045 250.206 26.4394 251.028 26.9091C251.854 27.375 252.506 28.053 252.983 28.9432C253.464 29.8333 253.705 30.9129 253.705 32.1818ZM251.21 32.1818C251.21 31.3598 251.087 30.6667 250.841 30.1023C250.598 29.5379 250.256 29.1098 249.812 28.8182C249.369 28.5265 248.85 28.3807 248.256 28.3807C247.661 28.3807 247.142 28.5265 246.699 28.8182C246.256 29.1098 245.911 29.5379 245.665 30.1023C245.422 30.6667 245.301 31.3598 245.301 32.1818C245.301 33.0038 245.422 33.697 245.665 34.2614C245.911 34.8258 246.256 35.2538 246.699 35.5455C247.142 35.8371 247.661 35.983 248.256 35.983C248.85 35.983 249.369 35.8371 249.812 35.5455C250.256 35.2538 250.598 34.8258 250.841 34.2614C251.087 33.697 251.21 33.0038 251.21 32.1818ZM255.482 41.2727V29.2727H257.868V30.7386H257.976C258.082 30.5038 258.235 30.2652 258.436 30.0227C258.641 29.7765 258.906 29.572 259.232 29.4091C259.561 29.2424 259.97 29.1591 260.459 29.1591C261.095 29.1591 261.682 29.3258 262.22 29.6591C262.758 29.9886 263.188 30.4867 263.51 31.1534C263.832 31.8163 263.993 32.6477 263.993 33.6477C263.993 34.6212 263.836 35.4432 263.521 36.1136C263.211 36.7803 262.786 37.286 262.249 37.6307C261.714 37.9716 261.116 38.142 260.453 38.142C259.983 38.142 259.584 38.0644 259.254 37.9091C258.929 37.7538 258.661 37.5587 258.453 37.3239C258.245 37.0852 258.086 36.8447 257.976 36.6023H257.902V41.2727H255.482ZM257.851 33.6364C257.851 34.1553 257.923 34.608 258.067 34.9943C258.211 35.3807 258.419 35.6818 258.692 35.8977C258.964 36.1098 259.296 36.2159 259.686 36.2159C260.08 36.2159 260.413 36.108 260.686 35.892C260.959 35.6723 261.165 35.3693 261.305 34.983C261.449 34.5928 261.521 34.1439 261.521 33.6364C261.521 33.1326 261.451 32.6894 261.311 32.3068C261.171 31.9242 260.964 31.625 260.692 31.4091C260.419 31.1932 260.084 31.0852 259.686 31.0852C259.292 31.0852 258.959 31.1894 258.686 31.3977C258.417 31.6061 258.211 31.9015 258.067 32.2841C257.923 32.6667 257.851 33.1174 257.851 33.6364ZM270.249 29.2727V31.0909H264.993V29.2727H270.249ZM266.186 27.1818H268.607V35.3182C268.607 35.5417 268.641 35.7159 268.709 35.8409C268.777 35.9621 268.872 36.0473 268.993 36.0966C269.118 36.1458 269.262 36.1705 269.425 36.1705C269.538 36.1705 269.652 36.161 269.766 36.142C269.879 36.1193 269.966 36.1023 270.027 36.0909L270.408 37.892C270.286 37.9299 270.116 37.9735 269.896 38.0227C269.677 38.0758 269.41 38.108 269.095 38.1193C268.512 38.142 268 38.0644 267.561 37.8864C267.125 37.7083 266.786 37.4318 266.544 37.0568C266.302 36.6818 266.182 36.2083 266.186 35.6364V27.1818ZM271.825 38V29.2727H274.246V38H271.825ZM273.041 28.1477C272.681 28.1477 272.373 28.0284 272.115 27.7898C271.861 27.5473 271.734 27.2576 271.734 26.9205C271.734 26.5871 271.861 26.3011 272.115 26.0625C272.373 25.8201 272.681 25.6989 273.041 25.6989C273.401 25.6989 273.708 25.8201 273.962 26.0625C274.219 26.3011 274.348 26.5871 274.348 26.9205C274.348 27.2576 274.219 27.5473 273.962 27.7898C273.708 28.0284 273.401 28.1477 273.041 28.1477ZM280.128 38.1705C279.245 38.1705 278.482 37.983 277.838 37.608C277.198 37.2292 276.704 36.7027 276.355 36.0284C276.007 35.3504 275.832 34.5644 275.832 33.6705C275.832 32.7689 276.007 31.9811 276.355 31.3068C276.704 30.6288 277.198 30.1023 277.838 29.7273C278.482 29.3485 279.245 29.1591 280.128 29.1591C281.01 29.1591 281.772 29.3485 282.412 29.7273C283.056 30.1023 283.552 30.6288 283.901 31.3068C284.249 31.9811 284.423 32.7689 284.423 33.6705C284.423 34.5644 284.249 35.3504 283.901 36.0284C283.552 36.7027 283.056 37.2292 282.412 37.608C281.772 37.983 281.01 38.1705 280.128 38.1705ZM280.139 36.2955C280.541 36.2955 280.876 36.1818 281.145 35.9545C281.414 35.7235 281.616 35.4091 281.753 35.0114C281.893 34.6136 281.963 34.161 281.963 33.6534C281.963 33.1458 281.893 32.6932 281.753 32.2955C281.616 31.8977 281.414 31.5833 281.145 31.3523C280.876 31.1212 280.541 31.0057 280.139 31.0057C279.734 31.0057 279.393 31.1212 279.116 31.3523C278.844 31.5833 278.637 31.8977 278.497 32.2955C278.361 32.6932 278.293 33.1458 278.293 33.6534C278.293 34.161 278.361 34.6136 278.497 35.0114C278.637 35.4091 278.844 35.7235 279.116 35.9545C279.393 36.1818 279.734 36.2955 280.139 36.2955ZM288.418 32.9545V38H285.997V29.2727H288.304V30.8125H288.406C288.599 30.3049 288.923 29.9034 289.378 29.608C289.832 29.3087 290.384 29.1591 291.031 29.1591C291.637 29.1591 292.166 29.2917 292.616 29.5568C293.067 29.822 293.418 30.2008 293.668 30.6932C293.918 31.1818 294.043 31.7652 294.043 32.4432V38H291.622V32.875C291.626 32.3409 291.49 31.9242 291.213 31.625C290.937 31.322 290.556 31.1705 290.071 31.1705C289.745 31.1705 289.457 31.2405 289.207 31.3807C288.961 31.5208 288.768 31.7254 288.628 31.9943C288.491 32.2595 288.421 32.5795 288.418 32.9545Z" fill="#2D107A"/>
<g filter="url(#filter2_d_8_33)">
<path d="M455 79H393C390.239 79 388 76.7614 388 74V34.5394C388 34.1808 388.039 33.8233 388.115 33.473L392.691 12.5105C393.247 9.96336 395.667 8.27097 398.25 8.62252L419.395 11.5H429.86L450.362 8.65438C453.003 8.28788 455.466 10.0574 455.962 12.6767L459.913 33.539C459.971 33.8457 460 34.1571 460 34.4692V74C460 76.7614 457.761 79 455 79Z" fill="#C6BDFF"/>
<path d="M455 79H393C390.239 79 388 76.7614 388 74V34.5394C388 34.1808 388.039 33.8233 388.115 33.473L392.691 12.5105C393.247 9.96336 395.667 8.27097 398.25 8.62252L419.395 11.5H429.86L450.362 8.65438C453.003 8.28788 455.466 10.0574 455.962 12.6767L459.913 33.539C459.971 33.8457 460 34.1571 460 34.4692V74C460 76.7614 457.761 79 455 79Z" stroke="#2D107A" stroke-width="2"/>
</g>
<path d="M453 27.3834V45.2787C453 47.7466 451.141 49.8181 448.687 50.0839L431 52H418L399.335 50.0659C396.872 49.8107 395 47.7348 395 45.2583V27.3834" stroke="black" stroke-width="1.93333" stroke-linecap="round"/>
<path d="M453 27.3834V45.2787C453 47.7466 451.141 49.8181 448.687 50.0839L431 52H418L399.335 50.0659C396.872 49.8107 395 47.7348 395 45.2583V27.3834" stroke="#2D107A" stroke-width="1.93333" stroke-linecap="round"/>
<line x1="1" y1="-1" x2="19.21" y2="-1" transform="matrix(-0.165143 0.98627 -0.972632 -0.232351 395.02 53)" stroke="black" stroke-width="2" stroke-linecap="round"/>
<line x1="1" y1="-1" x2="19.21" y2="-1" transform="matrix(-0.165143 0.98627 -0.972632 -0.232351 395.02 53)" stroke="#2D107A" stroke-width="2" stroke-linecap="round"/>
<path d="M454.053 73.2246L451.963 54.7921" stroke="black" stroke-width="2" stroke-linecap="round"/>
<path d="M454.053 73.2246L451.963 54.7921" stroke="#2D107A" stroke-width="2" stroke-linecap="round"/>
<path d="M410.943 19.7455C410.881 19.1232 410.617 18.6398 410.149 18.2953C409.681 17.9507 409.046 17.7784 408.243 17.7784C407.698 17.7784 407.238 17.8556 406.863 18.0099C406.487 18.159 406.199 18.3673 405.999 18.6347C405.803 18.9021 405.705 19.2055 405.705 19.5449C405.695 19.8278 405.754 20.0746 405.883 20.2855C406.017 20.4963 406.199 20.6789 406.431 20.8331C406.662 20.9823 406.929 21.1134 407.233 21.2265C407.536 21.3345 407.86 21.4271 408.205 21.5042L409.624 21.8437C410.313 21.9979 410.946 22.2036 411.522 22.4608C412.098 22.7179 412.596 23.0342 413.018 23.4096C413.44 23.785 413.766 24.2272 413.998 24.7363C414.234 25.2455 414.355 25.8291 414.36 26.4874C414.355 27.4542 414.108 28.2924 413.62 29.0021C413.136 29.7066 412.437 30.2543 411.522 30.6452C410.611 31.0309 409.514 31.2237 408.228 31.2237C406.953 31.2237 405.842 31.0283 404.895 30.6374C403.954 30.2466 403.219 29.6681 402.689 28.9018C402.165 28.1304 401.89 27.1765 401.864 26.04H405.096C405.132 26.5697 405.284 27.0119 405.551 27.3668C405.824 27.7165 406.186 27.9813 406.639 28.1613C407.097 28.3361 407.613 28.4236 408.189 28.4236C408.755 28.4236 409.246 28.3413 409.663 28.1767C410.084 28.0122 410.411 27.7833 410.642 27.4902C410.874 27.1971 410.989 26.8602 410.989 26.4797C410.989 26.1248 410.884 25.8266 410.673 25.5849C410.467 25.3432 410.164 25.1375 409.763 24.9678C409.367 24.7981 408.881 24.6438 408.305 24.5049L406.585 24.073C405.253 23.749 404.201 23.2424 403.43 22.5533C402.658 21.8642 402.275 20.936 402.281 19.7686C402.275 18.8121 402.53 17.9764 403.044 17.2616C403.564 16.5468 404.276 15.9888 405.181 15.5877C406.086 15.1866 407.115 14.986 408.266 14.986C409.439 14.986 410.462 15.1866 411.337 15.5877C412.216 15.9888 412.9 16.5468 413.388 17.2616C413.877 17.9764 414.129 18.8044 414.144 19.7455H410.943Z" fill="#2D107A"/>
<g filter="url(#filter3_d_8_33)">
<path d="M184 77H10C7.23858 77 5 74.7614 5 72V29.7294C5 29.2745 5.0621 28.8216 5.18457 28.3835L10.9009 7.93223C11.5405 5.64377 13.7024 4.1216 16.0726 4.2909L40 6L69 7.5H98.5L126.75 7.25L154.5 6L177.922 4.29655C180.295 4.12402 182.46 5.64663 183.101 7.93742L188.815 28.3835C188.938 28.8216 189 29.2745 189 29.7294V72C189 74.7614 186.761 77 184 77Z" fill="#C6BDFF"/>
<path d="M184 77H10C7.23858 77 5 74.7614 5 72V29.7294C5 29.2745 5.0621 28.8216 5.18457 28.3835L10.9009 7.93223C11.5405 5.64377 13.7024 4.1216 16.0726 4.2909L40 6L69 7.5H98.5L126.75 7.25L154.5 6L177.922 4.29655C180.295 4.12402 182.46 5.64663 183.101 7.93742L188.815 28.3835C188.938 28.8216 189 29.2745 189 29.7294V72C189 74.7614 186.761 77 184 77Z" stroke="#2D107A" stroke-width="2"/>
</g>
<path d="M183 23.5V41.67C183 45.9944 179.494 49.5 175.17 49.5H116.68H78.14L18.7248 48.6151C14.4156 48.5509 10.9317 45.0847 10.8455 40.7759L10.5 23.5" stroke="black" stroke-width="1.93333" stroke-linecap="round"/>
<path d="M183 23.5V41.67C183 45.9944 179.494 49.5 175.17 49.5H116.68H78.14L18.7248 48.6151C14.4156 48.5509 10.9317 45.0847 10.8455 40.7759L10.5 23.5" stroke="#2D107A" stroke-width="1.93333" stroke-linecap="round"/>
<path d="M12.5 51L10 72.5" stroke="black" stroke-width="1.98698" stroke-linecap="round"/>
<path d="M12.5 51L10 72.5" stroke="#2D107A" stroke-width="1.98698" stroke-linecap="round"/>
<path d="M181 53L183.5 72" stroke="black" stroke-width="1.98698" stroke-linecap="round"/>
<path d="M181 53L183.5 72" stroke="#2D107A" stroke-width="1.98698" stroke-linecap="round"/>
<mask id="path-20-inside-1_8_33" fill="white">
<path d="M32.961 28.5L50 36.9H38.6927V42.5H27.6999V36.9H16L32.961 28.5Z"/>
</mask>
<path d="M32.961 28.5L33.8453 26.7061L32.959 26.2692L32.0734 26.7078L32.961 28.5ZM50 36.9V38.9L50.8843 35.1061L50 36.9ZM16 36.9L15.1124 35.1078L16 38.9V36.9ZM27.6999 36.9H29.6999V34.9H27.6999V36.9ZM38.6927 36.9V34.9H36.6927V36.9H38.6927ZM27.6999 42.5H25.6999C25.6999 43.6046 26.5954 44.5 27.6999 44.5V42.5ZM38.6927 42.5V44.5H40.6927V42.5H38.6927ZM32.0766 30.2939L49.1157 38.6939L50.8843 35.1061L33.8453 26.7061L32.0766 30.2939ZM16.8876 38.6922L33.8486 30.2922L32.0734 26.7078L15.1124 35.1078L16.8876 38.6922ZM27.6999 34.9H16V38.9H27.6999V34.9ZM50 34.9H38.6927V38.9H50V34.9ZM29.6999 42.5V36.9H25.6999V42.5H29.6999ZM36.6927 36.9V42.5H40.6927V36.9H36.6927ZM38.6927 40.5H27.6999V44.5H38.6927V40.5Z" fill="black" mask="url(#path-20-inside-1_8_33)"/>
<path d="M32.961 28.5L33.8453 26.7061L32.959 26.2692L32.0734 26.7078L32.961 28.5ZM50 36.9V38.9L50.8843 35.1061L50 36.9ZM16 36.9L15.1124 35.1078L16 38.9V36.9ZM27.6999 36.9H29.6999V34.9H27.6999V36.9ZM38.6927 36.9V34.9H36.6927V36.9H38.6927ZM27.6999 42.5H25.6999C25.6999 43.6046 26.5954 44.5 27.6999 44.5V42.5ZM38.6927 42.5V44.5H40.6927V42.5H38.6927ZM32.0766 30.2939L49.1157 38.6939L50.8843 35.1061L33.8453 26.7061L32.0766 30.2939ZM16.8876 38.6922L33.8486 30.2922L32.0734 26.7078L15.1124 35.1078L16.8876 38.6922ZM27.6999 34.9H16V38.9H27.6999V34.9ZM50 34.9H38.6927V38.9H50V34.9ZM29.6999 42.5V36.9H25.6999V42.5H29.6999ZM36.6927 36.9V42.5H40.6927V36.9H36.6927ZM38.6927 40.5H27.6999V44.5H38.6927V40.5Z" fill="#2D107A" mask="url(#path-20-inside-1_8_33)"/>
<path d="M22.6657 14.8476C22.6332 14.445 22.4679 14.1297 22.1698 13.9016C21.8717 13.6735 21.4636 13.5547 20.9455 13.5452C20.5934 13.5387 20.2953 13.583 20.051 13.6782C19.8068 13.7701 19.6183 13.9011 19.4856 14.0714C19.3562 14.2418 19.2895 14.4366 19.2855 14.6558C19.2755 14.8383 19.3107 14.9985 19.3913 15.1361C19.4751 15.2739 19.5908 15.394 19.7384 15.4964C19.8861 15.5954 20.0573 15.6833 20.2519 15.76C20.4465 15.8333 20.6547 15.8969 20.8763 15.9509L21.7888 16.1869C22.232 16.2948 22.6381 16.4351 23.007 16.608C23.3759 16.7809 23.6943 16.9911 23.9622 17.2386C24.23 17.486 24.4357 17.7755 24.5791 18.1071C24.7258 18.4387 24.7969 18.8171 24.7924 19.2422C24.7776 19.8665 24.6082 20.4049 24.2842 20.8574C23.9637 21.3067 23.5055 21.6521 22.9097 21.8936C22.3173 22.1318 21.6059 22.2433 20.7756 22.228C19.952 22.2129 19.2369 22.0735 18.6305 21.8098C18.0274 21.5462 17.5594 21.1638 17.2264 20.6627C16.8968 20.1583 16.7305 19.539 16.7274 18.8047L18.8147 18.8431C18.8317 19.1856 18.9244 19.473 19.0928 19.7054C19.2647 19.9345 19.4957 20.1098 19.7858 20.2314C20.0793 20.3498 20.412 20.4124 20.784 20.4192C21.1493 20.426 21.4675 20.3787 21.7384 20.2773C22.0127 20.1761 22.2263 20.0322 22.3793 19.8456C22.5322 19.6591 22.6109 19.4429 22.6155 19.1972C22.6197 18.968 22.5552 18.7741 22.4219 18.6155C22.2919 18.457 22.0984 18.3205 21.8414 18.2062C21.5877 18.0919 21.2756 17.9864 20.9053 17.8899L19.7996 17.5905C18.9432 17.3654 18.2701 17.0258 17.7801 16.5716C17.2902 16.1174 17.0538 15.5134 17.071 14.7595C17.079 14.1417 17.2534 13.6051 17.594 13.1496C17.9379 12.6941 18.4045 12.3422 18.9938 12.094C19.5831 11.8457 20.2497 11.7284 20.9936 11.7421C21.7508 11.756 22.4093 11.8977 22.9692 12.1672C23.5323 12.4367 23.9674 12.8051 24.2744 13.2726C24.5814 13.74 24.7343 14.2777 24.7331 14.8857L22.6657 14.8476ZM28.3534 17.7978L28.272 22.2216L26.1498 22.1825L26.3376 11.98L28.4 12.018L28.3282 15.9186L28.4179 15.9203C28.5989 15.4718 28.8844 15.1232 29.2743 14.8746C29.6644 14.6227 30.15 14.502 30.7312 14.5127C31.2625 14.5225 31.7237 14.6473 32.1146 14.887C32.509 15.1235 32.8117 15.4597 33.023 15.8955C33.2376 16.328 33.3377 16.8431 33.3234 17.4408L33.2337 22.3129L31.1115 22.2738L31.1943 17.7804C31.2063 17.3088 31.0935 16.9397 30.8558 16.6728C30.6216 16.4061 30.2885 16.2687 29.8568 16.2607C29.5679 16.2554 29.311 16.3122 29.0862 16.4309C28.8648 16.5498 28.6888 16.7259 28.5582 16.9594C28.4311 17.1896 28.3628 17.4691 28.3534 17.7978ZM34.9038 22.3437L35.0447 14.6918L37.1669 14.7309L37.026 22.3828L34.9038 22.3437ZM36.129 13.7251C35.8134 13.7193 35.5447 13.6097 35.3227 13.3963C35.1041 13.1796 34.9975 12.9235 35.003 12.6279C35.0084 12.3357 35.1242 12.087 35.3506 11.8819C35.5804 11.6735 35.853 11.5722 36.1685 11.578C36.484 11.5838 36.751 11.695 36.9696 11.9117C37.1916 12.1251 37.2999 12.3779 37.2946 12.6701C37.2891 12.9657 37.1715 13.2177 36.9418 13.4261C36.7154 13.6312 36.4445 13.7309 36.129 13.7251ZM42.9818 14.838L42.9524 16.4321L38.2298 16.3451L38.2591 14.751L42.9818 14.838ZM39.1993 22.4228L39.3503 14.218C39.3606 13.6633 39.477 13.2053 39.6996 12.844C39.9255 12.4827 40.2294 12.2142 40.6114 12.0385C40.9934 11.8628 41.4251 11.7794 41.9067 11.7883C42.2322 11.7943 42.5289 11.8247 42.797 11.8794C43.0685 11.9343 43.2702 11.9828 43.4023 12.0251L42.9944 13.6123C42.9118 13.5842 42.8093 13.5574 42.6869 13.5319C42.5677 13.5064 42.4451 13.4925 42.3189 13.4902C42.0067 13.4845 41.7878 13.5535 41.6622 13.6974C41.5367 13.8379 41.4716 14.0377 41.4668 14.2968L41.3165 22.4618L39.1993 22.4228ZM48.3483 14.9368L48.3189 16.5309L43.7109 16.4461L43.7402 14.8519L48.3483 14.9368ZM44.8201 13.0379L46.9423 13.077L46.811 20.2108C46.8074 20.4067 46.8344 20.56 46.8922 20.6707C46.95 20.7781 47.0317 20.8544 47.1372 20.8995C47.246 20.9447 47.3718 20.9686 47.5146 20.9712C47.6142 20.9731 47.714 20.9666 47.8139 20.9518C47.9139 20.9337 47.9906 20.9202 48.0439 20.9112L48.3486 22.4966C48.2417 22.5278 48.0916 22.5632 47.8981 22.6029C47.7047 22.6458 47.47 22.6697 47.1942 22.6746C46.6823 22.6851 46.2353 22.6088 45.8529 22.4456C45.4738 22.2825 45.181 22.0346 44.9746 21.7019C44.7681 21.3692 44.6711 20.9521 44.6836 20.4507L44.8201 13.0379Z" fill="#2D107A"/>
<defs>
<filter id="filter0_d_8_33" x="226" y="3.27696" width="122" height="80.723" filterUnits="userSpaceOnUse" color-interpolation-filters="sRGB">
<feFlood flood-opacity="0" result="BackgroundImageFix"/>
<feColorMatrix in="SourceAlpha" type="matrix" values="0 0 0 0 0 0 0 0 0 0 0 0 0 0 0 0 0 0 127 0" result="hardAlpha"/>
<feOffset dy="4"/>
<feGaussianBlur stdDeviation="2"/>
<feComposite in2="hardAlpha" operator="out"/>
<feColorMatrix type="matrix" values="0 0 0 0 0.466667 0 0 0 0 0.443137 0 0 0 0 0.823529 0 0 0 1 0"/>
<feBlend mode="normal" in2="BackgroundImageFix" result="effect1_dropShadow_8_33"/>
<feBlend mode="normal" in="SourceGraphic" in2="effect1_dropShadow_8_33" result="shape"/>
</filter>
<filter id="filter1_d_8_33" x="226" y="0.292862" width="122" height="83.7071" filterUnits="userSpaceOnUse" color-interpolation-filters="sRGB">
<feFlood flood-opacity="0" result="BackgroundImageFix"/>
<feColorMatrix in="SourceAlpha" type="matrix" values="0 0 0 0 0 0 0 0 0 0 0 0 0 0 0 0 0 0 127 0" result="hardAlpha"/>
<feOffset dy="4"/>
<feGaussianBlur stdDeviation="2"/>
<feComposite in2="hardAlpha" operator="out"/>
<feColorMatrix type="matrix" values="0 0 0 0 0.466667 0 0 0 0 0.443137 0 0 0 0 0.823529 0 0 0 1 0"/>
<feBlend mode="normal" in2="BackgroundImageFix" result="effect1_dropShadow_8_33"/>
<feBlend mode="normal" in="SourceGraphic" in2="effect1_dropShadow_8_33" result="shape"/>
</filter>
<filter id="filter2_d_8_33" x="383" y="7.57629" width="82" height="80.4237" filterUnits="userSpaceOnUse" color-interpolation-filters="sRGB">
<feFlood flood-opacity="0" result="BackgroundImageFix"/>
<feColorMatrix in="SourceAlpha" type="matrix" values="0 0 0 0 0 0 0 0 0 0 0 0 0 0 0 0 0 0 127 0" result="hardAlpha"/>
<feOffset dy="4"/>
<feGaussianBlur stdDeviation="2"/>
<feComposite in2="hardAlpha" operator="out"/>
<feColorMatrix type="matrix" values="0 0 0 0 0.470588 0 0 0 0 0.447059 0 0 0 0 0.823529 0 0 0 0.92 0"/>
<feBlend mode="normal" in2="BackgroundImageFix" result="effect1_dropShadow_8_33"/>
<feBlend mode="normal" in="SourceGraphic" in2="effect1_dropShadow_8_33" result="shape"/>
</filter>
<filter id="filter3_d_8_33" x="0" y="3.27805" width="194" height="82.722" filterUnits="userSpaceOnUse" color-interpolation-filters="sRGB">
<feFlood flood-opacity="0" result="BackgroundImageFix"/>
<feColorMatrix in="SourceAlpha" type="matrix" values="0 0 0 0 0 0 0 0 0 0 0 0 0 0 0 0 0 0 127 0" result="hardAlpha"/>
<feOffset dy="4"/>
<feGaussianBlur stdDeviation="2"/>
<feComposite in2="hardAlpha" operator="out"/>
<feColorMatrix type="matrix" values="0 0 0 0 0.470588 0 0 0 0 0.447059 0 0 0 0 0.823529 0 0 0 1 0"/>
<feBlend mode="normal" in2="BackgroundImageFix" result="effect1_dropShadow_8_33"/>
<feBlend mode="normal" in="SourceGraphic" in2="effect1_dropShadow_8_33" result="shape"/>
</filter>
</defs>
</svg>
