<?xml version="1.0" encoding="utf-8"?>
<!-- Svg Vector Icons : http://www.onlinewebfonts.com/icon -->
<!DOCTYPE svg PUBLIC "-//W3C//DTD SVG 1.1//EN" "http://www.w3.org/Graphics/SVG/1.1/DTD/svg11.dtd">
<svg version="1.1" xmlns="http://www.w3.org/2000/svg" xmlns:xlink="http://www.w3.org/1999/xlink" x="0px" y="0px" viewBox="0 0 1000 1000" enable-background="new 0 0 1000 1000" xml:space="preserve">
<metadata> Svg Vector Icons : http://www.onlinewebfonts.com/icon </metadata>
<g><g transform="translate(0.000000,511.000000) scale(0.100000,-0.100000)"><path d="M4535.9,4951.6c-1834.8-196.4-3378.2-1362.1-4053.8-3063C277,1374.8,143.2,675.5,143.2,127.2c0-205.1,64.8-351.8,198.6-442.5c77.7-54,107.9-62.6,246.1-62.6c138.1,0,166.2,6.5,248.2,64.8c146.8,103.6,177,187.8,196.4,541.8c19.4,379.9,62.6,662.7,148.9,964.9c408,1446.3,1580.1,2521.2,3084.6,2825.6c215.9,43.2,310.8,49.6,733.9,49.6c423.1,0,518.1-6.5,733.9-49.6c708-144.6,1359.9-461.9,1886.6-921.7l190-168.4l-313-315.2c-356.2-360.5-382.1-395-382.1-498.6c0-92.8,43.2-157.6,123-192.1c82-32.4,2307.5-477.1,2393.9-477.1c79.9,0,202.9,77.7,239.6,151.1c15.1,30.2,28.1,92.8,28.1,140.3c0,136-446.8,2333.4-490,2406.8c-19.4,34.5-62.6,73.4-95,88.5c-123,49.6-183.5,12.9-541.8-343.2L8434.3,3555l-157.6,138.1C7529.9,4355.8,6754.9,4735.8,5809.5,4902c-198.6,34.5-369.1,47.5-723.1,51.8C4831.6,4958.1,4583.4,4955.9,4535.9,4951.6z"/><path d="M9252.4,580.5c-183.5-73.4-278.5-228.8-280.6-451.1c-6.5-1772.2-1152.7-3322.1-2836.4-3829.4c-420.9-127.3-613-153.3-1157-151.1c-442.5,0-509.4,4.3-755.5,58.3c-736.1,155.4-1364.2,472.7-1895.2,956.3l-138.2,123l302.2,304.4c360.5,364.8,392.9,408,392.9,502.9c0,97.1-30.2,149-110.1,190c-36.7,19.4-572,136-1191.5,261.2C309.4-1198.2,287.8-1196,171.2-1325.5c-60.4-64.8-71.2-92.8-71.2-181.3c0-114.4,438.2-2331.3,472.7-2398.2c32.4-60.4,129.5-131.7,179.2-131.7c86.3,0,187.8,79.9,494.3,382.1l317.3,313l211.5-185.7c703.7-615.2,1493.7-995.1,2415.5-1159.1c243.9-43.2,349.7-49.7,809.5-49.7c405.8,0,578.5,8.6,744.7,36.7c502.9,88.5,908.8,215.9,1342.7,425.3c1485.1,712.3,2491,2093.8,2715.5,3723.6c84.2,610.9,62.6,880.7-79.9,1018.9C9597.8,591.3,9397,638.8,9252.4,580.5z"/></g></g>
</svg>