<svg width="800" height="800" viewBox="0 0 800 800" fill="none" xmlns="http://www.w3.org/2000/svg">
<g clip-path="url(#clip0_22_14)">
<g filter="url(#filter0_d_22_14)">
<path fill-rule="evenodd" clip-rule="evenodd" d="M504.918 340.984V485.207C504.918 506.964 487.384 524.59 465.456 524.59H334.557C312.761 524.59 295.095 506.99 295.095 485.207V340.984H504.918ZM478.689 340.984V485.22C478.689 492.485 472.708 498.361 465.548 498.361H334.466C327.2 498.361 321.325 492.38 321.325 485.22V340.984H478.689ZM360.656 275.41C360.656 268.171 366.57 262.295 373.652 262.295H426.348C433.521 262.295 439.344 268.118 439.344 275.41C439.344 282.649 433.43 288.525 426.348 288.525H373.652C366.479 288.525 360.656 282.702 360.656 275.41ZM360.656 367.174C360.656 359.948 366.479 354.098 373.771 354.098C381.01 354.098 386.885 360.039 386.885 367.174V445.941C386.885 453.167 381.062 459.016 373.771 459.016C366.531 459.016 360.656 453.075 360.656 445.941V367.174ZM413.115 367.174C413.115 359.948 418.938 354.098 426.23 354.098C433.469 354.098 439.344 360.039 439.344 367.174V445.941C439.344 453.167 433.521 459.016 426.23 459.016C418.99 459.016 413.115 453.075 413.115 445.941V367.174ZM334.426 288.525H281.862C274.833 288.525 268.852 294.4 268.852 301.639C268.852 308.931 274.675 314.754 281.862 314.754H518.138C525.167 314.754 531.148 308.879 531.148 301.639C531.148 294.348 525.325 288.525 518.138 288.525H465.574V275.41C465.574 253.731 447.961 236.066 426.23 236.066H373.784C352.118 236.066 334.439 253.679 334.439 275.41L334.426 288.525Z" fill="#E45959"/>
</g>
</g>
<defs>
<filter id="filter0_d_22_14" x="6.5574" y="-13.1147" width="786.885" height="813.115" filterUnits="userSpaceOnUse" color-interpolation-filters="sRGB">
<feFlood flood-opacity="0" result="BackgroundImageFix"/>
<feColorMatrix in="SourceAlpha" type="matrix" values="0 0 0 0 0 0 0 0 0 0 0 0 0 0 0 0 0 0 127 0" result="hardAlpha"/>
<feOffset dy="13.1148"/>
<feGaussianBlur stdDeviation="131.148"/>
<feColorMatrix type="matrix" values="0 0 0 0 0 0 0 0 0 0 0 0 0 0 0 0 0 0 0.1 0"/>
<feBlend mode="normal" in2="BackgroundImageFix" result="effect1_dropShadow_22_14"/>
<feBlend mode="normal" in="SourceGraphic" in2="effect1_dropShadow_22_14" result="shape"/>
</filter>
<clipPath id="clip0_22_14">
<rect width="800" height="800" fill="white"/>
</clipPath>
</defs>
</svg>
